<svg width="22.000000" height="22.000000" viewBox="0 0 22 22" fill="none" xmlns="http://www.w3.org/2000/svg" xmlns:xlink="http://www.w3.org/1999/xlink">
	<desc>
			Created with Pixso.
	</desc>
	<defs>
		<clipPath id="clip52_10">
			<rect width="22.000000" height="22.000000" fill="white" fill-opacity="0"/>
		</clipPath>
	</defs>
	<rect width="22.000000" height="22.000000" fill="#FFFFFF" fill-opacity="0"/>
	<g clip-path="url(#clip52_10)">
		<path d="M4.125 4.125C2.99414 4.125 2.0625 5.05652 2.0625 6.1875L2.0625 10.8495C1.64307 11.2283 1.375 11.7706 1.375 12.375L1.375 18.5625L4.8125 18.5625L4.8125 17.1875L17.1875 17.1875L17.1875 18.5625L20.625 18.5625L20.625 12.375C20.625 11.7706 20.3569 11.2283 19.9375 10.8495L19.9375 6.1875C19.9375 5.05652 19.0059 4.125 17.875 4.125L4.125 4.125ZM4.125 5.5L17.875 5.5C18.2566 5.5 18.5625 5.80591 18.5625 6.1875L18.5625 10.3125L17.1875 10.3125L17.1875 9.625C17.1875 8.49402 16.2559 7.5625 15.125 7.5625L12.375 7.5625C11.8484 7.5625 11.365 7.7688 11 8.09949C10.6243 7.7561 10.134 7.5647 9.625 7.5625L6.875 7.5625C5.74414 7.5625 4.8125 8.49402 4.8125 9.625L4.8125 10.3125L3.4375 10.3125L3.4375 6.1875C3.4375 5.80591 3.74341 5.5 4.125 5.5ZM6.875 8.9375L9.625 8.9375C10.0066 8.9375 10.3125 9.24341 10.3125 9.625L10.3125 10.3125L6.1875 10.3125L6.1875 9.625C6.1875 9.24341 6.49341 8.9375 6.875 8.9375ZM12.375 8.9375L15.125 8.9375C15.5066 8.9375 15.8125 9.24341 15.8125 9.625L15.8125 10.3125L11.6875 10.3125L11.6875 9.625C11.6875 9.24341 11.9934 8.9375 12.375 8.9375ZM3.4375 11.6875L18.5625 11.6875C18.9441 11.6875 19.25 11.9934 19.25 12.375L19.25 17.1875L18.5625 17.1875L18.5625 15.8125L3.4375 15.8125L3.4375 17.1875L2.75 17.1875L2.75 12.375C2.75 11.9934 3.05591 11.6875 3.4375 11.6875Z" fill="#1AA090" fill-opacity="1.000000" fill-rule="nonzero"/>
	</g>
</svg>
