<svg width="22.000000" height="22.000000" viewBox="0 0 22 22" fill="none" xmlns="http://www.w3.org/2000/svg" xmlns:xlink="http://www.w3.org/1999/xlink">
	<desc>
			Created with Pixso.
	</desc>
	<defs>
		<clipPath id="clip52_8">
			<rect width="22.000000" height="22.000000" fill="white" fill-opacity="0"/>
		</clipPath>
	</defs>
	<rect width="22.000000" height="22.000000" fill="#FFFFFF" fill-opacity="0"/>
	<g clip-path="url(#clip52_8)">
		<path d="M3.4375 3.4375L3.4375 8.25L4.8125 8.25L4.8125 13.75L3.4375 13.75L3.4375 18.5625L8.25 18.5625L8.25 17.1875L13.75 17.1875L13.75 18.5625L18.5625 18.5625L18.5625 13.75L17.1875 13.75L17.1875 8.25L18.5625 8.25L18.5625 3.4375L13.75 3.4375L13.75 4.8125L8.25 4.8125L8.25 3.4375L3.4375 3.4375ZM4.8125 4.8125L6.875 4.8125L6.875 6.875L4.8125 6.875L4.8125 4.8125ZM15.125 4.8125L17.1875 4.8125L17.1875 6.875L15.125 6.875L15.125 4.8125ZM8.25 6.1875L13.75 6.1875L13.75 8.25L15.8125 8.25L15.8125 13.75L13.75 13.75L13.75 15.8125L8.25 15.8125L8.25 13.75L6.1875 13.75L6.1875 8.25L8.25 8.25L8.25 6.1875ZM4.8125 15.125L6.875 15.125L6.875 17.1875L4.8125 17.1875L4.8125 15.125ZM15.125 15.125L17.1875 15.125L17.1875 17.1875L15.125 17.1875L15.125 15.125Z" fill="#1AA090" fill-opacity="1.000000" fill-rule="nonzero"/>
	</g>
</svg>
