<svg width="22.000000" height="22.000000" viewBox="0 0 22 22" fill="none" xmlns="http://www.w3.org/2000/svg" xmlns:xlink="http://www.w3.org/1999/xlink">
	<desc>
			Created with Pixso.
	</desc>
	<defs>
		<clipPath id="clip52_6">
			<rect width="22.000000" height="22.000000" fill="white" fill-opacity="0"/>
		</clipPath>
	</defs>
	<rect width="22.000000" height="22.000000" fill="#FFFFFF" fill-opacity="0"/>
	<g clip-path="url(#clip52_6)">
		<path d="M17.875 2.75C16.3557 2.75 15.125 3.98059 15.125 5.5L13.75 5.5L13.75 6.875L17.875 6.875L17.875 5.5L16.5 5.5C16.5 4.68115 17.0562 4.125 17.875 4.125C18.6938 4.125 19.25 4.68115 19.25 5.5L19.25 9.625L0.6875 9.625L0.6875 11L1.50415 11L2.55615 16.2208L2.55615 16.2422C2.63599 16.5928 2.8042 16.917 3.04492 17.1841C3.28564 17.451 3.59082 17.652 3.93115 17.7677L3.4375 19.25L4.8125 19.25L5.26343 17.875L16.7366 17.875L17.1875 19.25L18.5625 19.25L18.0681 17.7677C18.7881 17.5477 19.3469 16.9702 19.5078 16.2422L19.5078 16.2208L20.4963 11L21.3125 11L21.3125 9.625L20.625 9.625L20.625 5.5C20.625 3.98059 19.3943 2.75 17.875 2.75ZM2.90063 11L19.1208 11L18.1541 15.963C18.0737 16.2607 17.8213 16.5 17.4666 16.5L4.5979 16.5C4.22949 16.5 3.97998 16.256 3.9104 15.941L2.90063 11Z" fill="#1AA090" fill-opacity="1.000000" fill-rule="nonzero"/>
	</g>
</svg>
